<?xml version="1.0" encoding="utf-8"?>
<!-- Generator: Adobe Illustrator 24.1.2, SVG Export Plug-In . SVG Version: 6.00 Build 0)  -->
<svg version="1.1" id="Capa_1" xmlns="http://www.w3.org/2000/svg" xmlns:xlink="http://www.w3.org/1999/xlink" x="0px" y="0px"
	 viewBox="0 0 521.9 208.6" style="enable-background:new 0 0 521.9 208.6;" xml:space="preserve">
<style type="text/css">
	.st0{fill:none;stroke:#00A8E8;stroke-width:12.4794;stroke-miterlimit:10;}
	.st1{fill:#00A8E8;}
	.st2{fill:#00A8E8;stroke:#FFFFFF;stroke-width:3.9286;stroke-miterlimit:10;}
	.st3{fill:none;stroke:#FFFFFF;stroke-width:3.9286;stroke-miterlimit:10;}
	.st4{fill:none;stroke:#FFFFFF;stroke-width:8;stroke-miterlimit:10;}
	.st5{fill:#4375BA;stroke:#FFFFFF;stroke-width:2.9499;stroke-miterlimit:10;}
	.st6{fill:#FFFFFF;stroke:#FFFFFF;stroke-width:2.6135;stroke-miterlimit:10;}
</style>
<g>
	<path class="st0" d="M100.4,19c50.9,0,92,39.8,92,89"/>
	<path class="st0" d="M99.9,19c50.9,0,92.6,39.8,92.6,89"/>
	<path class="st0" d="M101.2,197.6c50.9-0.6,91.9-40.8,91.3-90"/>
	<path class="st0" d="M101.5,197.6c-50.9-0.6-91.6-40.8-91-90"/>
</g>
<g>
	<g>
		<g>
			<polygon class="st1" points="100.4,12.7 36,12.7 36,3.2 20.2,19 36,34.7 36,25.2 100.4,25.2 			"/>
		</g>
	</g>
</g>
<polygon class="st2" points="162.4,74 162.4,162.2 83.2,206.4 4,162.2 4,74 83.2,29.9 "/>
<line class="st3" x1="83.2" y1="206.4" x2="83.2" y2="118.1"/>
<line class="st3" x1="83.2" y1="118.1" x2="162.4" y2="74"/>
<line class="st3" x1="83.2" y1="118.1" x2="4" y2="74"/>
<line class="st4" x1="122.8" y1="46.3" x2="40.1" y2="95"/>
<path class="st5" d="M48,91.9"/>
<path class="st5" d="M48,123.7"/>
<path class="st5" d="M43.6,91.9"/>
<path class="st5" d="M43.6,118.6"/>
<path class="st5" d="M46.2,89.9"/>
<path class="st5" d="M46.2,121.7"/>
<polygon class="st6" points="43.4,115 38.2,112.2 39.5,93.9 44.8,95.8 "/>
<g>
	<g>
		<path class="st1" d="M207.2,107.9l7-5.5c2.5,3.6,6.3,5.9,10.3,5.9c3.9,0,6.7-2,6.7-5.4c0-2.4-2.1-3.7-5.4-5.7l-4.4-2.7
			c-4.2-2.6-6.9-5.9-6.9-11.6c0-7.9,7.2-14.4,16.3-14.4c5.4,0,10.5,2.7,14,7l-6.1,5.7c-2.4-2.5-5-4.3-8.3-4.3c-3.8,0-5.9,2.3-5.9,5
			c0,2.4,2.2,3.5,5.8,5.8l4.6,2.8c4.5,2.7,6.4,5.7,6.4,11c0,8.4-6.9,15-17.5,15C217.6,116.6,211.7,114.1,207.2,107.9z"/>
		<path class="st1" d="M255.6,69.4h9.7l-3.7,18h15.8l3.6-18h9.7l-9.3,46.3h-9.7l4-19.8H260l-3.9,19.8h-9.7L255.6,69.4z"/>
		<path class="st1" d="M301.9,69.4h9.7l-9.3,46.3h-9.7L301.9,69.4z"/>
		<path class="st1" d="M322.8,69.4h14.6c9,0,15.9,3.4,15.9,12.3c0,12.9-9.7,17.9-21.4,17.9h-5.5l-3.2,16.1h-9.7L322.8,69.4z
			 M333,91.9c6.9,0,10.7-3,10.7-8.8c0-4.2-2.8-6-7.8-6h-5L328.1,92L333,91.9L333,91.9z"/>
		<path class="st1" d="M364.2,69.4h14.1c9.3,0,15.6,3.3,15.6,10.6c0,5.3-4,9.8-10.1,11.6l-0.1,0.3c5.1,1.2,8,4.1,8,8.7
			c0,10.9-9.2,15.2-20,15.2H355L364.2,69.4z M372.2,108.3c6.5,0,10.2-2.6,10.2-7.4c0-3.8-2.5-5.9-7.5-5.9h-6.1l-2.7,13.3H372.2z
			 M374.8,88.3c6.5,0,9.2-2.7,9.2-6.7c0-3-2.3-4.8-7.4-4.8h-4.1l-2.3,11.4H374.8z"/>
		<path class="st1" d="M415.8,69.4h11.6l4.7,46.3h-10.2l-1.2-25.1c-0.2-4.6-0.5-8.9-0.6-13.8h-0.3c-2,4.8-3.8,9.2-6,13.8l-11.8,25.1
			h-10.7L415.8,69.4z M405.3,96.7h21.2l-1.7,7.3h-21.2L405.3,96.7z"/>
		<path class="st1" d="M438.7,97.2c0-16,10.8-28.6,24.6-28.6c5.4,0,9.7,2.8,12.3,7.3L469,81c-1.7-2.7-3.7-4.1-6.2-4.1
			c-7.9,0-14.2,9.2-14.2,19.6c0,7.2,2.8,11.6,9.6,11.6c2.8,0,5.5-1.5,7.9-3.5l4.1,6.2c-2.8,2.6-7.7,5.7-14,5.7
			C445.6,116.6,438.7,109.3,438.7,97.2z"/>
		<path class="st1" d="M486.3,69.4h9.7l-3.8,19h0.3l17.4-19h10.7l-16.8,19l10.3,27.3h-10.1l-7.4-21.2l-7,7.6l-2.7,13.6H477
			L486.3,69.4z"/>
		<path class="st1" d="M214.7,132.8h-5.3l0.4-1.9h12.9l-0.4,1.9h-5.3l-3.3,16.5h-2.2L214.7,132.8z"/>
		<path class="st1" d="M225.9,129.4h2.1l-1.3,6.6l-0.5,1.7h0.1c1.5-1.3,3-2.3,4.7-2.3c2.3,0,3.2,1.3,3.2,3.4c0,0.6-0.1,1.1-0.2,1.9
			l-1.7,8.7h-2.1l1.7-8.4c0.1-0.7,0.2-1.1,0.2-1.6c0-1.4-0.6-2.1-2-2.1c-1.1,0-2.4,0.8-4.1,2.4l-1.9,9.6h-2.1L225.9,129.4z"/>
		<path class="st1" d="M243.9,135.4c3.1,0,4.2,2.1,4.2,4.9c0,1.1-0.3,2.1-0.5,2.6h-8.8c-0.5,3.5,1.3,5,3.7,5c1.1,0,2.2-0.6,3.1-1.2
			l0.8,1.4c-1.1,0.8-2.6,1.5-4.4,1.5c-3.2,0-5.3-2.1-5.3-5.7C236.7,138.8,240.4,135.4,243.9,135.4z M246.2,141.5
			c0.1-0.4,0.1-0.9,0.1-1.4c0-1.6-0.7-3-2.6-3c-2,0-3.9,1.7-4.6,4.4L246.2,141.5L246.2,141.5z"/>
		<path class="st1" d="M262.8,135.4c3.1,0,4.2,2.1,4.2,4.9c0,1.1-0.3,2.1-0.5,2.6h-8.8c-0.5,3.5,1.3,5,3.7,5c1.1,0,2.2-0.6,3.1-1.2
			l0.8,1.4c-1.1,0.8-2.6,1.5-4.4,1.5c-3.2,0-5.3-2.1-5.3-5.7C255.5,138.8,259.2,135.4,262.8,135.4z M265,141.5
			c0.1-0.4,0.1-0.9,0.1-1.4c0-1.6-0.7-3-2.6-3c-2,0-4,1.7-4.6,4.4L265,141.5L265,141.5z"/>
		<path class="st1" d="M269,144.7c0-5.2,3.6-9.3,7.3-9.3c1.5,0,2.7,0.8,3.3,2.1h0.1l0.5-1.7h1.7l-2.7,13.6h-1.8l0.2-2h-0.1
			c-1.3,1.4-3,2.4-4.7,2.4C270.6,149.6,269,147.9,269,144.7z M278,145.3l1.3-6.1c-0.8-1.4-1.8-2-2.8-2c-2.7,0-5.2,3.5-5.2,7.2
			c0,2.3,1,3.4,2.5,3.4C275.2,147.9,276.7,147,278,145.3z"/>
		<path class="st1" d="M282.9,147.1l1.3-1.1c0.8,1.2,2.1,2,3.5,2c1.5,0,2.9-1,2.9-2.3c0-1-0.6-1.6-2.5-2.6c-2.1-1.1-3.1-2.2-3.1-3.7
			c0-2.4,2.1-4.1,4.7-4.1c1.7,0,3,0.8,4,1.8l-1.2,1.2c-0.7-0.7-1.6-1.3-2.8-1.3c-1.5,0-2.6,1-2.6,2.1c0,1.1,1.2,1.7,2.4,2.4
			c2.4,1.3,3.2,2.4,3.2,3.9c0,2.6-2.2,4.2-5.1,4.2C285.7,149.6,283.8,148.5,282.9,147.1z"/>
		<path class="st1" d="M297.8,135.7h2.1l-2.7,13.6h-2.1L297.8,135.7z M298.3,131.6c0-0.9,0.8-1.6,1.6-1.6c0.7,0,1.4,0.5,1.4,1.3
			c0,0.9-0.8,1.6-1.6,1.6C298.9,132.9,298.3,132.4,298.3,131.6z"/>
		<path class="st1" d="M309.2,135.4c3.1,0,4.2,2.1,4.2,4.9c0,1.1-0.3,2.1-0.5,2.6h-8.8c-0.5,3.5,1.3,5,3.7,5c1.1,0,2.2-0.6,3.1-1.2
			l0.8,1.4c-1.1,0.8-2.6,1.5-4.4,1.5c-3.2,0-5.3-2.1-5.3-5.7C301.9,138.8,305.6,135.4,309.2,135.4z M311.4,141.5
			c0.1-0.4,0.1-0.9,0.1-1.4c0-1.6-0.7-3-2.6-3c-2,0-4,1.7-4.6,4.4L311.4,141.5L311.4,141.5z"/>
		<path class="st1" d="M314.2,147.1l1.3-1.1c0.8,1.2,2.1,2,3.5,2c1.5,0,2.9-1,2.9-2.3c0-1-0.6-1.6-2.5-2.6c-2.1-1.1-3.1-2.2-3.1-3.7
			c0-2.4,2.1-4.1,4.7-4.1c1.7,0,3,0.8,4,1.8l-1.2,1.2c-0.7-0.7-1.6-1.3-2.8-1.3c-1.5,0-2.6,1-2.6,2.1c0,1.1,1.2,1.7,2.4,2.4
			c2.4,1.3,3.2,2.4,3.2,3.9c0,2.6-2.2,4.2-5.1,4.2C317.1,149.6,315.1,148.5,314.2,147.1z"/>
		<path class="st1" d="M327.5,146.6c0-0.6,0.1-1,0.1-1.5l1.6-7.7h-2l0.3-1.6l2.1-0.1l1-3.8h1.8l-0.7,3.8h3.5l-0.4,1.7h-3.5l-1.6,7.8
			c-0.1,0.3-0.1,0.6-0.1,1c0,1.1,0.5,1.7,1.7,1.7c0.5,0,1-0.2,1.4-0.4l0.5,1.5c-0.6,0.3-1.5,0.6-2.6,0.6
			C328.4,149.6,327.5,148.3,327.5,146.6z"/>
		<path class="st1" d="M342,135.7h2.1l0.4,8c0,1.3,0.1,2.5,0.1,3.8h0.1c0.5-1.3,1-2.5,1.6-3.8l3.6-8h2.1l0.5,8
			c0,1.3,0.1,2.5,0.1,3.8h0.1c0.5-1.3,1-2.5,1.6-3.8l3.5-8h2l-6.2,13.6h-2.7l-0.4-7.4c0-1.3-0.1-2.7-0.1-4h-0.1
			c-0.5,1.3-1.1,2.7-1.6,4l-3.3,7.4H343L342,135.7z"/>
		<path class="st1" d="M361,144.7c0-5.2,3.6-9.3,7.3-9.3c1.5,0,2.7,0.8,3.3,2.1h0.1l0.5-1.7h1.7l-2.7,13.6h-1.8l0.2-2h-0.1
			c-1.3,1.4-3,2.4-4.7,2.4C362.5,149.6,361,147.9,361,144.7z M369.9,145.3l1.3-6.1c-0.8-1.4-1.8-2-2.8-2c-2.7,0-5.2,3.5-5.2,7.2
			c0,2.3,1,3.4,2.5,3.4C367.1,147.9,368.6,147,369.9,145.3z"/>
		<path class="st1" d="M373.2,154.8l0.7-1.6c0.3,0.2,0.6,0.3,1,0.3c1.4,0,2.6-1.2,3.6-3.1l0.5-1l-2.3-13.6h2.1l1.1,7.6
			c0.2,1.3,0.3,2.8,0.5,4.1h0.1c0.6-1.3,1.3-2.8,2-4.1l3.9-7.6h2.1l-8,14.8c-1.4,2.6-3.1,4.7-5.7,4.7
			C374.3,155.2,373.7,155,373.2,154.8z"/>
		<path class="st1" d="M388.7,148.3c0-0.9,0.8-2,1.9-2c0.8,0,1.3,0.6,1.3,1.4c0,1-0.8,1.9-1.8,1.9
			C389.2,149.6,388.7,149.1,388.7,148.3z M392.2,133.1l0.4-2.6h2.1l-0.5,2.6l-2.4,10.7h-1.5L392.2,133.1z"/>
	</g>
</g>
</svg>
