<?xml version="1.0" encoding="utf-8"?>
<!-- Generator: Adobe Illustrator 24.1.2, SVG Export Plug-In . SVG Version: 6.00 Build 0)  -->
<svg version="1.1" id="Capa_1" xmlns="http://www.w3.org/2000/svg" xmlns:xlink="http://www.w3.org/1999/xlink" x="0px" y="0px"
	 viewBox="0 0 313.4 48" style="enable-background:new 0 0 313.4 48;" xml:space="preserve">
<style type="text/css">
	.st0{fill:#00A8E8;}
</style>
<g>
	<path class="st0" d="M0,39.4l7-5.5c2.5,3.6,6.3,5.9,10.3,5.9c3.9,0,6.7-2,6.7-5.4c0-2.4-2.1-3.7-5.4-5.7L14.2,26
		c-4.2-2.6-6.9-5.9-6.9-11.6C7.3,6.5,14.5,0,23.6,0c5.4,0,10.5,2.7,14,7l-6.1,5.7c-2.4-2.5-5-4.3-8.3-4.3c-3.8,0-5.9,2.3-5.9,5
		c0,2.4,2.2,3.5,5.8,5.8l4.6,2.8c4.5,2.7,6.4,5.7,6.4,11c0,8.4-6.9,15-17.5,15C10.4,48.1,4.5,45.6,0,39.4z"/>
	<path class="st0" d="M48.4,0.9h9.7l-3.7,18h15.8l3.6-18h9.7l-9.3,46.3h-9.7l4-19.8H52.8l-3.9,19.8h-9.7L48.4,0.9z"/>
	<path class="st0" d="M94.7,0.9h9.7l-9.3,46.3h-9.7L94.7,0.9z"/>
	<path class="st0" d="M115.6,0.9h14.6c9,0,15.9,3.4,15.9,12.3c0,12.9-9.7,17.9-21.4,17.9h-5.5L116,47.2h-9.7L115.6,0.9z M125.8,23.4
		c6.9,0,10.7-3,10.7-8.8c0-4.2-2.8-6-7.8-6h-5l-2.8,14.9L125.8,23.4L125.8,23.4z"/>
	<path class="st0" d="M157,0.9h14.1c9.3,0,15.6,3.3,15.6,10.6c0,5.3-4,9.8-10.1,11.6l-0.1,0.3c5.1,1.2,8,4.1,8,8.7
		c0,10.9-9.2,15.2-20,15.2h-16.7L157,0.9z M165,39.8c6.5,0,10.2-2.6,10.2-7.4c0-3.8-2.5-5.9-7.5-5.9h-6.1l-2.7,13.3H165z
		 M167.6,19.8c6.5,0,9.2-2.7,9.2-6.7c0-3-2.3-4.8-7.4-4.8h-4.1L163,19.7L167.6,19.8L167.6,19.8z"/>
	<path class="st0" d="M208.6,0.9h11.6l4.7,46.3h-10.2l-1.2-25.1c-0.2-4.6-0.5-8.9-0.6-13.8h-0.3c-2,4.8-3.8,9.2-6,13.8l-11.8,25.1
		h-10.7L208.6,0.9z M198.1,28.2h21.2l-1.7,7.3h-21.2L198.1,28.2z"/>
	<path class="st0" d="M231.5,28.7c0-16,10.8-28.6,24.6-28.6c5.4,0,9.7,2.8,12.3,7.3l-6.6,5.1c-1.7-2.7-3.7-4.1-6.2-4.1
		c-7.9,0-14.2,9.2-14.2,19.6c0,7.2,2.8,11.6,9.6,11.6c2.8,0,5.5-1.5,7.9-3.5l4.1,6.2c-2.8,2.6-7.7,5.7-14,5.7
		C238.4,48.1,231.5,40.8,231.5,28.7z"/>
	<path class="st0" d="M279.1,0.9h9.7l-3.8,19h0.3l17.4-19h10.7l-16.8,19l10.3,27.3h-10.1L289.4,26l-7,7.6l-2.7,13.6h-9.9L279.1,0.9z
		"/>
</g>
</svg>
